<svg xmlns="http://www.w3.org/2000/svg" width="161" height="39" viewBox="0 0 161 39" fill="none"><path d="M151.285 23.3547C150.716 24.6965 149.922 25.8654 148.914 26.8448C147.912 27.8281 146.712 28.6044 145.364 29.1883C143.997 29.7519 142.523 30.0336 140.947 30.0336C139.412 30.0336 137.952 29.7519 136.566 29.1883C135.184 28.6044 133.979 27.8281 132.939 26.8448C131.913 25.8654 131.109 24.6965 130.499 23.3547C129.907 22.0051 129.614 20.5739 129.614 19.032C129.614 17.5444 129.907 16.1268 130.499 14.8083C131.109 13.4918 131.913 12.3414 132.939 11.3513C133.979 10.3602 135.184 9.59363 136.566 9.01163C137.952 8.43643 139.412 8.15272 140.947 8.15272C142.523 8.15272 143.997 8.43643 145.364 9.01163C146.712 9.59363 147.912 10.3602 148.914 11.3513C149.922 12.3414 150.716 13.4918 151.285 14.8083C151.859 16.1268 152.142 17.5444 152.142 19.032C152.142 20.5739 151.859 22.0051 151.285 23.3547ZM159.829 14.0058C159.362 12.3744 158.706 10.8587 157.855 9.44789C157.006 8.04486 155.981 6.75455 154.778 5.5886C153.577 4.42557 152.255 3.42189 150.803 2.5999C149.349 1.77887 147.794 1.13469 146.116 0.683857C144.434 0.23011 142.692 -0.000167847 140.892 -0.000167847C139.09 -0.000167847 137.353 0.23011 135.685 0.683857C134.016 1.13469 132.455 1.77887 131 2.5999C129.538 3.42189 128.203 4.42557 127.004 5.5886C125.802 6.75455 124.772 8.04486 123.917 9.44789C123.055 10.8587 122.395 12.3744 121.931 14.0058C121.462 15.642 121.226 17.3297 121.226 19.0796C121.226 20.8334 121.462 22.5152 121.931 24.1388C122.395 25.7614 123.055 27.282 123.917 28.7025C124.772 30.1143 125.802 31.4104 127.004 32.5696C128.203 33.7423 129.538 34.745 131 35.5738C132.455 36.4094 134.016 37.0546 135.685 37.5083C137.353 37.9611 139.09 38.1865 140.892 38.1865C142.692 38.1865 144.434 37.9611 146.116 37.5083C147.794 37.0546 149.349 36.4094 150.803 35.5738C152.255 34.745 153.577 33.7423 154.778 32.5696C155.981 31.4104 157.006 30.1143 157.855 28.7025C158.706 27.282 159.362 25.7614 159.829 24.1388C160.298 22.5152 160.529 20.8334 160.529 19.0796C160.529 17.3297 160.298 15.642 159.829 14.0058Z" fill="black"></path><path d="M89.0044 7.85234V22.6365H96.6144C97.6534 22.6365 98.6344 22.4412 99.5574 22.0565C100.474 21.6659 101.278 21.1402 101.966 20.4698C102.653 19.8014 103.201 19.0173 103.596 18.1136C103.992 17.2139 104.191 16.2559 104.191 15.2425C104.191 14.233 103.992 13.2721 103.596 12.3733C103.201 11.4716 102.653 10.6827 101.966 10.0161C101.278 9.34378 100.474 8.82494 99.5574 8.4324C98.6344 8.04473 97.6534 7.85234 96.6144 7.85234H89.0044ZM89.0044 37.3906H81.4014V0.460243H96.6144C98.0114 0.460243 99.3524 0.641937 100.64 0.985893C101.932 1.34442 103.137 1.84189 104.257 2.48219C105.384 3.12832 106.404 3.89881 107.333 4.80048C108.261 5.70797 109.057 6.7068 109.719 7.79793C110.378 8.89975 110.892 10.0793 111.255 11.3288C111.615 12.5841 111.799 13.8861 111.799 15.2425C111.799 16.5144 111.638 17.7532 111.31 18.9473C110.982 20.1541 110.515 21.2957 109.905 22.3762C109.291 23.4595 108.547 24.4525 107.66 25.3668C106.785 26.2724 105.787 27.0662 104.692 27.7327L108.909 37.3906H100.83L97.5184 29.948L89.0044 30.0014V37.3906Z" fill="black"></path><path d="M22.784 22.6346V15.2435C22.784 14.234 22.588 13.2701 22.195 12.3733C21.797 11.4736 21.251 10.6846 20.562 10.0162C19.875 9.34379 19.063 8.82494 18.137 8.43241C17.212 8.04473 16.227 7.85235 15.18 7.85235C14.139 7.85235 13.155 8.04473 12.229 8.43241C11.299 8.82494 10.495 9.34379 9.8 10.0162C9.109 10.6846 8.568 11.4736 8.173 12.3733C7.774 13.2701 7.578 14.234 7.578 15.2435V22.6346H22.784ZM30.396 37.3916H22.784V30.0014H7.578V37.3916H0V15.2435C0 13.1982 0.395001 11.2812 1.186 9.48856C1.985 7.69495 3.064 6.12772 4.435 4.79174C5.802 3.4509 7.41 2.39669 9.259 1.62133C11.107 0.84404 13.08 0.460247 15.18 0.460247C17.283 0.460247 19.261 0.84404 21.106 1.62133C22.95 2.39669 24.562 3.4509 25.94 4.79174C27.319 6.12772 28.405 7.69495 29.2 9.48856C30 11.2812 30.396 13.1982 30.396 15.2435V37.3916Z" fill="black"></path><path d="M69.5579 37.3911H43.5059V0.459763H69.5579V7.85283H51.1159V15.243H63.5959V22.6341H51.1159V30.0019H69.5579V37.3911Z" fill="black"></path></svg>